ffmpeg version 3.4.8-0ubuntu0.2 Copyright (c) 2000-2020 the FFmpeg developers
  built with gcc 7 (Ubuntu 7.5.0-3ubuntu1~18.04)
  configuration: --prefix=/usr --extra-version=0ubuntu0.2 --toolchain=hardened --libdir=/usr/lib/x86_64-linux-gnu --incdir=/usr/include/x86_64-linux-gnu --enable-gpl --disable-stripping --enable-avresample --enable-avisynth --enable-gnutls --enable-ladspa --enable-libass --enable-libbluray --enable-libbs2b --enable-libcaca --enable-libcdio --enable-libflite --enable-libfontconfig --enable-libfreetype --enable-libfribidi --enable-libgme --enable-libgsm --enable-libmp3lame --enable-libmysofa --enable-libopenjpeg --enable-libopenmpt --enable-libopus --enable-libpulse --enable-librubberband --enable-librsvg --enable-libshine --enable-libsnappy --enable-libsoxr --enable-libspeex --enable-libssh --enable-libtheora --enable-libtwolame --enable-libvorbis --enable-libvpx --enable-libwavpack --enable-libwebp --enable-libx265 --enable-libxml2 --enable-libxvid --enable-libzmq --enable-libzvbi --enable-omx --enable-openal --enable-opengl --enable-sdl2 --enable-libdc1394 --enable-libdrm --enable-libiec61883 --enable-chromaprint --enable-frei0r --enable-libopencv --enable-libx264 --enable-shared
  libavutil      55. 78.100 / 55. 78.100
  libavcodec     57.107.100 / 57.107.100
  libavformat    57. 83.100 / 57. 83.100
  libavdevice    57. 10.100 / 57. 10.100
  libavfilter     6.107.100 /  6.107.100
  libavresample   3.  7.  0 /  3.  7.  0
  libswscale      4.  8.100 /  4.  8.100
  libswresample   2.  9.100 /  2.  9.100
  libpostproc    54.  7.100 / 54.  7.100
[rawvideo @ 0x5570892caa20] Estimating duration from bitrate, this may be inaccurate
Input #0, rawvideo, from '../../SVC-Encoder-20220109T061506Z-001/SVC-Encoder/Dataset/RollerCoaster/ERP_8x8/tile_yuv/Tile_46_480x240.yuv':
  Duration: 00:00:10.00, start: 0.000000, bitrate: 41472 kb/s
    Stream #0:0: Video: rawvideo (I420 / 0x30323449), yuv420p, 480x240, 41472 kb/s, 30 tbr, 30 tbn, 30 tbc
Stream mapping:
  Stream #0:0 -> #0:0 (rawvideo (native) -> h264 (libx264))
Press [q] to stop, [?] for help
[libx264 @ 0x5570892d7c60] using cpu capabilities: MMX2 SSE2Fast LZCNT SSSE3 SSE4.2 AVX
[libx264 @ 0x5570892d7c60] profile High, level 2.1
Output #0, rawvideo, to 'RollerCoaster_Tile_46_480x240_x264_QP_24.h264':
  Metadata:
    encoder         : Lavf57.83.100
    Stream #0:0: Video: h264 (libx264), yuv420p, 480x240, q=-1--1, 30 fps, 30 tbn, 30 tbc
    Metadata:
      encoder         : Lavc57.107.100 libx264
    Side data:
      cpb: bitrate max/min/avg: 0/0/0 buffer size: 0 vbv_delay: -1
frame=  129 fps=0.0 q=30.0 PSNR=Y:nan U:nan V:nan *:nan size=     131kB time=00:00:02.86 bitrate= 374.2kbits/s speed=5.72x    frame=  241 fps=240 q=30.0 PSNR=Y:nan U:nan V:nan *:nan size=     256kB time=00:00:06.60 bitrate= 317.8kbits/s speed=6.57x    frame=  300 fps=216 q=30.0 LPSNR=Y:inf U:inf V:inf *:inf size=     422kB time=00:00:09.93 bitrate= 348.0kbits/s speed=7.15x    
video:422kB audio:0kB subtitle:0kB other streams:0kB global headers:0kB muxing overhead: 0.000000%
[libx264 @ 0x5570892d7c60] frame I:2     Avg QP:22.93  size: 15740  PSNR Mean Y:44.44 U:47.30 V:48.53 Avg:45.31 Global:45.27
[libx264 @ 0x5570892d7c60] frame P:77    Avg QP:24.87  size:  3563  PSNR Mean Y:41.04 U:46.62 V:47.66 Avg:42.29 Global:42.22
[libx264 @ 0x5570892d7c60] frame B:221   Avg QP:29.47  size:   571  PSNR Mean Y:40.71 U:46.47 V:47.57 Avg:41.98 Global:41.90
[libx264 @ 0x5570892d7c60] consecutive B-frames:  1.0%  2.0%  1.0% 96.0%
[libx264 @ 0x5570892d7c60] mb I  I16..4:  8.9% 74.8% 16.3%
[libx264 @ 0x5570892d7c60] mb P  I16..4:  0.8%  3.2%  1.2%  P16..4: 41.7% 26.3% 10.7%  0.0%  0.0%    skip:15.9%
[libx264 @ 0x5570892d7c60] mb B  I16..4:  0.0%  0.1%  0.0%  B16..8: 43.4%  6.6%  1.2%  direct: 0.5%  skip:48.3%  L0:41.6% L1:53.7% BI: 4.7%
[libx264 @ 0x5570892d7c60] 8x8 transform intra:65.8% inter:67.5%
[libx264 @ 0x5570892d7c60] coded y,uvDC,uvAC intra: 72.1% 88.2% 58.1% inter: 13.6% 12.0% 0.2%
[libx264 @ 0x5570892d7c60] i16 v,h,dc,p: 11% 48% 14% 26%
[libx264 @ 0x5570892d7c60] i8 v,h,dc,ddl,ddr,vr,hd,vl,hu:  5% 23% 15%  3% 17%  9%  8%  3% 18%
[libx264 @ 0x5570892d7c60] i4 v,h,dc,ddl,ddr,vr,hd,vl,hu:  8% 25% 19%  3% 16%  9%  6%  2% 12%
[libx264 @ 0x5570892d7c60] i8c dc,h,v,p: 40% 36%  8% 16%
[libx264 @ 0x5570892d7c60] Weighted P-Frames: Y:0.0% UV:0.0%
[libx264 @ 0x5570892d7c60] ref P L0: 61.7% 15.7% 15.9%  6.8%
[libx264 @ 0x5570892d7c60] ref B L0: 91.8%  7.1%  1.1%
[libx264 @ 0x5570892d7c60] ref B L1: 95.5%  4.5%
[libx264 @ 0x5570892d7c60] PSNR Mean Y:40.818 U:46.514 V:47.601 Avg:42.084 Global:41.996 kb/s:345.66
